# xmcd
#
# Track frame offsets: 
#        150
#        9794
#        19573
#        34545
#        44792
#        53635
#        65493
#        83841
#        94421
#        108214
#        121926
#
# Disc length: 1794 seconds
#
# Revision: 0
# Processed by: cddbd v1.5.2PL0 Copyright (c) Steve Scherf et al.
# Submitted via: ExactAudioCopy v1.3
#
DISCID=7f07000b
DTITLE=Marty Robbins - It's A Sin
DYEAR=1969
DGENRE=Country
TTITLE0=Hello Daily News
TTITLE1=When My Turn Comes Around
TTITLE2=If I Want To
TTITLE3=Rainbows
TTITLE4=Times Have Changed
TTITLE5=We're Getting Mighty Close
TTITLE6=You Gave Me A Mountain - Single Version
TTITLE7=This Song
TTITLE8=I Can't Say Goodbye
TTITLE9=Fresh Out Of Tears
TTITLE10=It's A Sin
EXTD=
EXTT0=
EXTT1=
EXTT2=
EXTT3=
EXTT4=
EXTT5=
EXTT6=
EXTT7=
EXTT8=
EXTT9=
EXTT10=
PLAYORDER=
